<?xml version="1.0" encoding="UTF-8" standalone="no"?>
<!DOCTYPE svg PUBLIC "-//W3C//DTD SVG 1.1//EN" "http://www.w3.org/Graphics/SVG/1.1/DTD/svg11.dtd">
<svg xmlns="http://www.w3.org/2000/svg" version="1.1" viewBox="0.00 0.00 865.00 382.00">
<circle fill="#0075bf" cx="76.74" cy="47.26" r="44.25"/>
<path fill="#0075bf" d="
  M 64.69 113.78
  C 90.49 90.77 111.72 149.60 116.66 164.70
  Q 131.50 210.05 136.62 258.68
  C 137.37 265.79 142.23 304.01 123.58 292.79
  C 109.29 284.19 93.96 270.82 76.49 271.07
  C 59.31 271.30 44.72 283.81 31.32 292.07
  C 17.04 300.87 15.84 286.04 16.03 276.74
  C 16.64 245.86 22.65 214.47 30.90 184.79
  C 36.58 164.36 43.56 144.27 54.00 126.29
  Q 57.59 120.12 64.69 113.78
  Z"
/>
<path fill="#0075bf" d="
  M 328.90 185.75
  L 364.24 185.75
  Q 364.73 185.75 364.73 186.24
  L 364.78 208.49
  A 0.58 0.57 -89.5 0 1 364.20 209.07
  L 329.56 208.99
  Q 328.39 208.99 328.39 210.16
  Q 328.37 230.50 328.45 251.54
  C 328.46 254.22 329.06 256.66 329.54 259.26
  C 332.30 274.22 355.15 268.63 364.09 263.73
  A 0.59 0.59 0.0 0 1 364.96 264.25
  L 365.08 288.24
  A 0.67 0.66 -11.4 0 1 364.65 288.87
  C 346.89 295.55 310.41 301.13 300.40 278.73
  Q 295.72 268.24 295.36 256.55
  Q 294.66 233.36 295.13 210.12
  A 1.16 1.15 -90.0 0 0 293.96 208.94
  L 280.46 209.16
  A 0.70 0.70 0.0 0 1 279.75 208.46
  L 279.75 199.00
  A 1.50 1.45 68.5 0 1 280.19 197.94
  L 322.49 155.63
  Q 322.87 155.26 323.40 155.26
  L 327.75 155.24
  A 0.51 0.50 89.4 0 1 328.26 155.75
  L 328.24 185.09
  A 0.66 0.66 0.0 0 0 328.90 185.75
  Z"
/>
<path fill="#0075bf" d="
  M 593.95 288.03
  C 560.63 301.29 507.02 295.95 499.26 251.49
  C 488.98 192.71 546.24 171.37 591.98 190.11
  A 1.23 1.23 0.0 0 1 592.75 191.25
  L 592.75 216.00
  A 0.54 0.54 0.0 0 1 591.99 216.50
  C 571.47 207.62 540.39 203.48 533.96 232.71
  Q 532.93 237.40 533.76 243.83
  C 537.84 275.32 573.14 271.02 593.80 261.78
  Q 594.50 261.47 594.50 262.24
  L 594.50 287.22
  A 0.88 0.87 -10.9 0 1 593.95 288.03
  Z"
/>
<path fill="#0075bf" d="
  M 764.71 194.04
  A 0.29 0.29 0.0 0 0 765.19 194.28
  Q 776.51 184.68 791.30 183.60
  C 820.65 181.46 842.04 201.30 845.39 229.57
  C 847.75 249.55 843.31 270.56 827.16 283.89
  C 810.53 297.62 784.00 298.71 767.02 285.36
  A 0.49 0.49 0.0 0 0 766.23 285.75
  L 766.26 377.24
  A 0.76 0.75 -90.0 0 1 765.51 378.00
  L 733.00 378.00
  Q 732.50 378.00 732.50 377.50
  L 732.50 184.14
  A 0.67 0.67 0.0 0 1 733.17 183.47
  L 764.35 183.57
  A 0.76 0.76 0.0 0 1 765.11 184.36
  L 764.71 194.04
  Z
  M 767.16 262.26
  Q 774.61 267.65 783.30 268.14
  C 804.15 269.31 812.72 252.04 810.53 233.27
  C 807.83 210.08 784.42 202.93 766.65 215.72
  A 0.97 0.96 -18.1 0 0 766.25 216.50
  L 766.25 260.48
  Q 766.25 261.60 767.16 262.26
  Z"
/>
<path fill="#0075bf" d="
  M 194.33 198.77
  C 205.23 187.95 217.12 182.93 232.99 183.81
  C 258.23 185.21 266.44 203.59 266.48 225.90
  Q 266.54 259.95 266.48 294.01
  Q 266.48 294.50 265.99 294.50
  L 233.27 294.50
  A 0.49 0.49 0.0 0 1 232.78 294.01
  Q 232.68 260.57 232.77 227.27
  C 232.78 221.97 231.25 214.13 226.73 210.51
  C 219.42 204.65 207.98 208.55 201.86 214.39
  C 198.77 217.32 193.75 222.66 193.75 227.17
  Q 193.73 260.54 193.78 293.93
  Q 193.79 294.50 193.21 294.50
  L 161.00 294.50
  Q 160.50 294.50 160.50 294.00
  L 160.50 184.50
  Q 160.50 184.00 161.00 184.00
  L 193.09 184.00
  A 0.89 0.89 0.0 0 1 193.98 184.91
  L 193.74 198.52
  Q 193.73 199.36 194.33 198.77
  Z"
/>
<path fill="#0075bf" d="
  M 436.50 294.69
  C 397.11 294.80 373.46 272.11 376.43 231.78
  C 378.79 199.80 405.85 181.03 436.76 183.71
  C 470.98 186.68 486.76 212.26 486.26 244.48
  Q 486.25 244.99 485.74 245.00
  L 411.23 245.01
  A 0.44 0.44 0.0 0 0 410.79 245.46
  C 411.29 262.76 422.57 271.02 438.67 272.63
  C 454.25 274.18 470.49 267.77 483.06 259.03
  A 0.51 0.51 0.0 0 1 483.86 259.45
  L 483.74 279.94
  Q 483.73 280.94 482.87 281.47
  Q 461.27 294.62 436.50 294.69
  Z
  M 411.85 228.68
  L 452.07 228.46
  A 0.23 0.23 0.0 0 0 452.30 228.23
  L 452.30 228.04
  A 21.58 20.26 89.7 0 0 431.92 206.57
  L 431.76 206.57
  A 21.58 20.26 89.7 0 0 411.62 228.26
  L 411.62 228.45
  A 0.23 0.23 0.0 0 0 411.85 228.68
  Z"
/>
<path fill="#0075bf" d="
  M 670.74 283.02
  Q 653.46 296.61 632.20 294.13
  C 621.18 292.85 612.52 288.08 608.83 277.57
  C 604.05 263.94 607.65 249.85 620.87 242.32
  C 635.55 233.96 652.79 228.84 668.95 224.32
  Q 669.45 224.18 669.53 223.67
  C 671.12 213.92 665.84 208.61 656.66 206.78
  C 639.04 203.27 625.61 212.23 612.48 222.68
  A 0.32 0.31 70.8 0 1 611.97 222.43
  L 612.02 196.97
  A 0.94 0.93 -17.0 0 1 612.44 196.19
  C 625.36 187.70 641.96 183.86 657.23 183.67
  C 684.19 183.35 703.23 189.78 703.62 220.78
  Q 703.89 243.10 703.73 265.44
  Q 703.72 267.73 705.90 269.59
  A 1.61 1.60 65.8 0 0 706.92 269.98
  Q 712.76 270.04 718.03 267.53
  A 0.51 0.50 77.4 0 1 718.75 267.99
  L 718.75 285.44
  Q 718.75 285.92 718.32 286.14
  C 707.36 291.82 675.54 303.24 671.38 283.25
  Q 671.25 282.61 670.74 283.02
  Z
  M 645.19 271.31
  C 652.31 276.39 662.96 271.66 669.16 267.15
  Q 669.59 266.83 669.59 266.29
  L 669.60 241.70
  Q 669.60 241.13 669.06 241.29
  Q 658.31 244.46 648.66 250.12
  C 641.42 254.37 637.07 265.53 645.19 271.31
  Z"
/>
</svg>
