<?xml version="1.0" encoding="UTF-8" standalone="no"?>
<!DOCTYPE svg PUBLIC "-//W3C//DTD SVG 1.1//EN" "http://www.w3.org/Graphics/SVG/1.1/DTD/svg11.dtd">
<svg xmlns="http://www.w3.org/2000/svg" version="1.1" viewBox="0.00 0.00 865.00 382.00">
<circle fill="#0075bf" cx="76.75" cy="47.27" r="44.28"/>
<path fill="#0075bf" d="
  M 30.11 292.86
  Q 28.86 293.55 27.51 294.11
  Q 20.22 297.15 17.79 290.28
  C 14.89 282.09 15.86 270.54 16.64 262.00
  C 19.11 235.05 24.19 208.65 31.41 182.59
  Q 37.60 160.21 47.30 139.05
  C 51.94 128.93 59.28 115.46 69.38 110.28
  C 90.65 99.37 107.18 139.42 112.29 153.26
  Q 132.21 207.20 137.12 264.42
  C 137.79 272.29 138.74 285.96 134.55 292.52
  C 131.98 296.54 126.21 294.54 122.70 292.34
  C 106.29 282.04 88.79 266.75 67.80 272.07
  C 55.58 275.16 45.12 282.76 32.49 291.49
  Q 32.02 291.81 30.11 292.86
  Z"
/>
<path fill="#0075bf" d="
  M 328.37 209.71
  Q 328.36 230.28 328.43 250.85
  C 328.45 257.25 329.71 266.14 336.49 267.85
  C 346.72 270.42 354.92 267.85 364.27 263.94
  Q 364.80 263.72 364.80 264.29
  L 365.09 287.85
  Q 365.10 288.79 364.22 289.11
  Q 343.33 296.74 322.10 293.85
  C 299.16 290.73 295.23 269.47 295.13 250.50
  Q 295.02 230.10 295.08 209.69
  Q 295.08 209.13 294.51 209.12
  L 280.30 209.11
  Q 279.73 209.11 279.73 208.55
  L 279.72 199.05
  Q 279.72 198.52 280.09 198.15
  L 322.58 155.60
  A 1.31 1.27 -66.5 0 1 323.48 155.23
  L 327.80 155.21
  Q 328.38 155.21 328.38 155.80
  L 328.36 185.30
  A 0.44 0.43 -0.0 0 0 328.80 185.73
  L 364.25 185.73
  Q 364.77 185.73 364.77 186.25
  L 364.80 208.68
  A 0.45 0.44 -90.0 0 1 364.36 209.13
  L 328.96 209.12
  Q 328.38 209.12 328.37 209.71
  Z"
/>
<path fill="#0075bf" d="
  M 594.28 287.82
  C 552.83 305.49 494.09 289.84 498.19 234.66
  C 501.82 185.75 554.04 173.95 592.19 190.20
  A 0.75 0.73 -78.6 0 1 592.63 190.88
  L 592.63 216.00
  Q 592.63 216.61 592.06 216.39
  C 579.43 211.45 564.47 206.96 551.17 211.82
  C 541.82 215.23 535.78 222.36 534.14 232.27
  C 531.13 250.43 538.57 265.25 557.67 267.97
  C 571.30 269.91 581.46 266.83 593.89 261.82
  Q 594.50 261.58 594.50 262.23
  L 594.50 287.48
  A 0.38 0.37 -12.3 0 1 594.28 287.82
  Z"
/>
<path fill="#0075bf" d="
  M 766.16 285.25
  L 766.21 377.39
  Q 766.22 377.99 765.61 377.99
  L 733.31 378.00
  Q 732.61 378.00 732.61 377.30
  L 732.65 184.25
  A 0.61 0.61 0.0 0 1 733.26 183.64
  L 764.22 183.62
  Q 765.06 183.62 765.04 184.47
  L 764.79 193.78
  Q 764.77 194.48 765.34 194.06
  C 772.84 188.51 778.65 185.33 788.21 183.99
  C 862.25 173.66 866.89 297.72 793.24 294.64
  Q 777.88 293.99 766.46 285.10
  Q 766.16 284.87 766.16 285.25
  Z
  M 810.32 231.77
  C 806.84 209.27 783.65 203.36 766.62 215.66
  A 1.03 1.00 72.8 0 0 766.20 216.49
  L 766.20 261.02
  Q 766.20 261.48 766.56 261.77
  Q 776.88 269.88 788.78 268.08
  C 807.29 265.30 812.95 248.75 810.32 231.77
  Z"
/>
<path fill="#0075bf" d="
  M 194.42 198.50
  Q 210.50 182.59 232.24 183.69
  C 244.71 184.31 255.58 189.12 261.35 200.24
  C 266.78 210.72 266.46 219.92 266.49 234.42
  Q 266.55 264.21 266.48 294.01
  Q 266.48 294.51 265.98 294.51
  L 233.29 294.51
  Q 232.81 294.51 232.81 294.03
  Q 232.96 240.92 232.80 226.26
  Q 232.75 221.69 230.66 216.04
  C 226.98 206.07 214.73 205.88 206.97 210.44
  Q 199.53 214.81 194.88 222.98
  Q 193.81 224.88 193.80 227.29
  Q 193.77 260.60 193.83 293.91
  Q 193.83 294.50 193.24 294.50
  L 160.99 294.53
  Q 160.44 294.53 160.44 293.99
  L 160.48 184.72
  Q 160.48 184.17 161.03 184.17
  L 193.23 184.14
  Q 193.83 184.14 193.83 184.73
  L 193.79 198.24
  Q 193.78 199.14 194.42 198.50
  Z"
/>
<path fill="#0075bf" d="
  M 411.02 245.39
  C 410.36 264.88 427.38 273.75 444.76 272.91
  C 459.42 272.20 471.18 266.80 483.29 258.96
  Q 483.80 258.63 483.80 259.24
  L 483.79 280.31
  A 1.20 1.19 -15.7 0 1 483.21 281.33
  Q 456.22 297.73 425.37 294.17
  C 392.83 290.43 375.75 268.86 376.09 236.43
  C 376.47 201.31 404.35 180.43 438.42 183.86
  C 471.22 187.17 487.42 213.48 486.18 244.55
  Q 486.16 245.00 485.71 245.00
  L 411.44 244.99
  Q 411.03 244.99 411.02 245.39
  Z
  M 427.38 207.13
  C 417.03 209.80 412.67 218.15 411.05 228.14
  A 0.49 0.49 0.0 0 0 411.53 228.71
  L 451.75 228.59
  Q 452.23 228.59 452.22 228.11
  C 451.71 214.82 441.59 203.45 427.38 207.13
  Z"
/>
<path fill="#0075bf" d="
  M 670.69 283.06
  Q 651.71 298.07 628.37 293.52
  C 614.40 290.80 607.20 280.88 606.89 266.93
  C 606.65 256.46 611.11 247.96 620.03 242.72
  Q 630.57 236.53 643.51 232.14
  Q 656.12 227.86 668.95 224.35
  A 0.86 0.85 -3.7 0 0 669.57 223.65
  C 671.26 212.62 664.56 207.71 654.45 206.33
  C 639.15 204.24 623.73 212.20 612.97 222.45
  Q 611.99 223.39 611.99 222.04
  L 612.02 197.46
  A 2.08 2.06 -16.0 0 1 613.01 195.70
  C 630.04 185.28 650.61 182.19 670.37 184.18
  C 693.65 186.53 703.57 198.14 703.68 221.50
  Q 703.78 243.00 703.71 264.50
  C 703.67 273.63 713.86 269.19 718.19 267.61
  A 0.42 0.42 0.0 0 1 718.75 268.00
  L 718.74 285.24
  Q 718.74 285.76 718.30 286.01
  Q 703.22 294.63 686.54 294.53
  Q 674.50 294.46 671.17 283.21
  Q 671.04 282.79 670.69 283.06
  Z
  M 641.38 259.13
  Q 639.17 267.75 645.22 271.53
  C 652.50 276.09 663.00 272.01 669.27 266.95
  Q 669.60 266.69 669.60 266.26
  L 669.61 241.61
  Q 669.61 240.96 668.99 241.16
  Q 661.74 243.50 654.77 246.84
  C 648.40 249.90 643.00 252.79 641.38 259.13
  Z"
/>
</svg>
