<?xml version="1.0" encoding="UTF-8" standalone="no"?>
<!DOCTYPE svg PUBLIC "-//W3C//DTD SVG 1.1//EN" "http://www.w3.org/Graphics/SVG/1.1/DTD/svg11.dtd">
<svg xmlns="http://www.w3.org/2000/svg" version="1.1" viewBox="0.00 0.00 192.00 192.00">
<ellipse fill="#006cb7" cx="0.00" cy="0.00" transform="translate(98.49,30.76) rotate(-0.2)" rx="29.68" ry="28.44"/>
<path fill="#006cb7" d="
  M 106.81 73.69
  C 113.25 79.42 117.25 87.10 120.49 94.90
  Q 131.33 121.00 136.11 148.77
  C 138.37 161.93 139.87 172.92 138.76 184.97
  C 138.07 192.50 130.92 189.91 127.05 187.22
  C 113.29 177.67 99.79 169.88 83.95 178.71
  C 77.78 182.15 70.49 187.89 62.96 190.23
  A 1.54 1.51 47.2 0 1 61.93 190.18
  C 57.01 188.07 57.56 178.87 57.84 174.76
  Q 60.55 134.10 75.67 96.47
  C 79.71 86.42 92.18 60.68 106.81 73.69
  Z"
/>
</svg>
